# xmcd
# 
# Track frame offsets:
#     150
#     19142
#     34940
#     45617
#     60342
#     77310
#     93670
#     107575
#     121940
#     130757
#     151367
#     166577
#     176567
#     191760
#     207357
# 
# Disc length: 2997
# 
# Revision: 1
# Processed by: cddbd v1.5.2PL0 Copyright (c) Steve Scherf et al.
# Submitted via: fre:ac v1.0.31
# 
DISCID=b80bb30f
DTITLE=Steve Earle - Transcendental Blues
DYEAR=2000
DGENRE=Country Rock
TTITLE0=Transcendental Blues
TTITLE1=Everyone's In Love With You
TTITLE2=Another Town
TTITLE3=I Can Wait
TTITLE4=The Boy Who Never Cried
TTITLE5=Steve's Last Ramble
TTITLE6=The Galway Girl
TTITLE7=Lonelier Than This
TTITLE8=Wherever I Go
TTITLE9=When I Fall
TTITLE10=I Don't Want To Lose You Yet
TTITLE11=Halo 'Round The Moon
TTITLE12=Until The Day I Die
TTITLE13=All Of My Life
TTITLE14=Over Yonder (Jonathan's Song)
EXTD=
EXTT0=
EXTT1=
EXTT2=
EXTT3=
EXTT4=
EXTT5=
EXTT6=
EXTT7=
EXTT8=
EXTT9=
EXTT10=
EXTT11=
EXTT12=
EXTT13=
EXTT14=
PLAYORDER=
